<svg xmlns="http://www.w3.org/2000/svg" width="256" height="256" viewBox="0 0 100 100"><rect width="100" height="100" rx="20" fill="#94b49f"></rect><path fill="#fff" d="M14.69 70.55L8.03 70.55L8.03 29.45L14.69 29.45L14.69 70.55ZM38.39 70.55L38.39 70.55L24.17 70.55L24.17 29.45L38.39 29.45Q47.87 29.45 51.35 34.25Q54.83 39.05 54.83 49.31L54.83 49.31Q54.83 54.53 54.14 58.16Q53.45 61.79 51.71 64.73L51.71 64.73Q48.29 70.55 38.39 70.55ZM47.93 49.31L47.93 49.31Q47.93 41.87 46.07 38.57Q44.21 35.27 38.39 35.27L38.39 35.27L30.83 35.27L30.83 64.67L38.39 64.67Q44.33 64.67 46.31 60.29L46.31 60.29Q47.27 58.07 47.60 55.55Q47.93 53.03 47.93 49.31ZM65.03 70.55L58.37 70.55L68.51 29.45L81.77 29.45L91.97 70.55L85.25 70.55L83.03 61.73L67.25 61.73L65.03 70.55ZM76.67 35.03L73.67 35.03L68.57 55.85L81.71 55.85L76.67 35.03Z"></path></svg>